# xmcd
#
# Track frame offsets:
#	150
#	41032
#	56885
#	79629
#	102692
#	122285
#	144067
#	159290
#	174130
#	192352
#	207105
#
# Disc length: 3016 seconds
#
# Revision: 4
# Processed by: cddbd v1.5.2PL0 Copyright (c) Steve Scherf et al.
# Submitted via: audiograbber 1.83.01
#
DISCID=880bc60b
DTITLE=Robin Trower - Go My Way
DYEAR=2000
DGENRE=Rock
TTITLE0=Go My Way
TTITLE1=Breathless
TTITLE2=Into Dust
TTITLE3=Run With The Wolves
TTITLE4=Too Much Joy
TTITLE5=Blue For Soul
TTITLE6=This Old World
TTITLE7=On Your Own
TTITLE8=Take This River
TTITLE9=Long Hard Game
TTITLE10=In My Dream
EXTD=
EXTT0=
EXTT1=
EXTT2=
EXTT3=
EXTT4=
EXTT5=
EXTT6=
EXTT7=
EXTT8=
EXTT9=
EXTT10=
PLAYORDER=
